<?xml version="1.0" standalone="no"?>
<!DOCTYPE svg PUBLIC "-//W3C//DTD SVG 20010904//EN"
 "http://www.w3.org/TR/2001/REC-SVG-20010904/DTD/svg10.dtd">
<svg version="1.0" xmlns="http://www.w3.org/2000/svg"
 width="256.000000pt" height="256.000000pt" viewBox="0 0 256.000000 256.000000"
 preserveAspectRatio="xMidYMid meet">
<metadata>
Created by potrace 1.11, written by Peter Selinger 2001-2013
</metadata>
<g transform="translate(0.000000,256.000000) scale(0.100000,-0.100000)"
fill="#000000" stroke="none">
<path d="M1218 2465 c-2 -1 -56 -5 -121 -9 -66 -3 -122 -8 -125 -10 -4 -2 -29
-7 -57 -10 -199 -26 -433 -120 -540 -218 -101 -92 -95 -29 -95 -884 -1 -530
-4 -752 -12 -761 -8 -11 -7 -12 6 -7 9 3 17 1 17 -5 1 -6 2 -14 3 -18 0 -5 11
-22 24 -40 12 -17 22 -36 22 -43 0 -6 4 -9 9 -6 5 3 17 -5 27 -19 10 -13 22
-21 27 -18 6 3 7 1 3 -6 -12 -18 14 -44 30 -30 10 8 16 6 25 -9 7 -11 17 -18
23 -16 6 2 23 -7 39 -21 16 -15 27 -20 27 -13 0 9 3 9 10 -2 5 -8 10 -11 10
-6 0 5 7 2 16 -5 9 -8 24 -14 33 -14 11 0 15 -8 14 -25 l-3 -25 15 25 c8 14
14 20 15 13 0 -7 6 -10 14 -7 8 3 17 1 20 -5 4 -6 14 -8 24 -5 13 4 12 2 -3
-8 -11 -7 -21 -20 -23 -28 -2 -12 1 -11 11 2 15 19 64 31 72 18 3 -5 0 -12 -6
-16 -6 -3 -15 -1 -19 6 -5 8 -10 8 -14 2 -9 -14 15 -21 55 -15 18 3 41 5 49 4
64 -4 78 -7 74 -13 -3 -4 12 -5 31 -4 25 3 38 -1 42 -10 4 -11 9 -12 19 -3 17
14 19 -2 2 -20 -11 -10 -10 -11 5 -6 9 4 17 14 17 23 0 13 3 12 15 -4 15 -19
15 -19 9 1 -3 12 -2 15 3 9 5 -7 45 -11 110 -9 56 0 100 -2 97 -6 -3 -5 -10
-7 -17 -5 -7 1 -9 1 -5 -1 5 -3 3 -13 -2 -23 -7 -13 -7 -21 2 -26 7 -4 8 -3 4
4 -8 13 36 55 60 58 12 2 13 -1 3 -12 -6 -7 -16 -11 -22 -7 -6 3 -7 1 -3 -5 4
-8 0 -12 -11 -13 -14 0 -13 -2 5 -10 14 -5 20 -13 16 -20 -4 -8 -3 -9 5 -5 9
6 9 11 1 21 -14 16 32 48 56 38 12 -4 15 -3 10 5 -5 8 -2 10 8 6 25 -10 19
-23 -9 -19 -29 3 -38 -6 -29 -29 5 -12 10 -13 27 -5 17 10 19 9 14 -6 -4 -9
-7 -18 -7 -21 0 -2 -6 -2 -12 0 -7 1 -10 1 -5 -1 4 -3 5 -8 3 -12 -3 -4 1 -8
9 -8 8 0 13 2 10 5 -6 6 14 42 23 42 4 0 8 -9 9 -20 1 -11 -2 -18 -8 -15 -5 4
-9 1 -9 -4 0 -14 6 -14 31 0 21 11 54 -5 44 -22 -3 -4 3 -6 15 -4 11 2 22 0
25 -6 10 -15 28 -10 21 6 -3 9 0 15 10 15 11 0 14 -5 10 -17 -4 -10 -4 -14 0
-10 4 4 13 2 20 -4 8 -7 14 -7 19 1 5 8 13 6 25 -5 11 -10 25 -15 32 -12 9 4
7 6 -4 6 -10 1 -23 11 -29 24 -12 22 -12 22 9 4 15 -14 21 -15 25 -5 4 11 6
11 6 0 1 -7 6 -10 13 -6 7 4 8 3 4 -4 -10 -16 7 -15 23 0 11 11 12 8 7 -12 -3
-14 -3 -19 0 -12 5 10 9 10 22 0 15 -11 15 -11 5 2 -11 14 -6 16 40 15 29 -1
58 4 66 9 11 8 13 8 8 -1 -4 -6 -4 -13 0 -16 5 -2 1 -2 -7 0 -11 3 -12 1 -3
-8 12 -12 37 -3 28 11 -3 4 2 11 11 14 24 9 31 7 14 -5 -12 -8 -10 -9 10 -5
14 3 31 6 38 6 7 0 11 4 8 8 -2 4 11 6 30 4 20 -3 31 -8 27 -15 -4 -6 -1 -7 6
-2 7 4 11 15 8 25 -3 13 0 17 10 13 8 -3 13 -14 10 -24 -3 -12 0 -16 9 -12 7
2 10 11 7 19 -3 8 -1 14 5 14 6 0 13 -6 15 -12 3 -7 6 -4 6 7 1 11 6 27 11 35
7 11 8 6 5 -18 -2 -19 0 -30 6 -26 5 3 7 10 4 15 -4 5 -2 9 4 9 6 0 8 7 5 15
-4 10 0 15 14 15 28 0 45 -23 29 -40 -10 -12 -9 -12 4 -2 9 6 18 10 21 7 3 -3
11 2 19 12 9 11 10 14 2 9 -8 -4 -13 -2 -13 4 0 7 -6 10 -14 7 -13 -5 -45 19
-35 26 2 2 22 15 45 29 138 88 272 279 298 423 3 17 8 41 11 55 3 14 6 66 7
115 1 93 -20 192 -60 285 -24 57 -107 179 -138 203 l-24 18 0 400 c0 460 2
449 -95 537 -160 147 -474 237 -857 246 -54 2 -99 2 -100 1z m-408 -2219 c0
-3 -4 -8 -10 -11 -5 -3 -10 -1 -10 4 0 6 5 11 10 11 6 0 10 -2 10 -4z m625
-96 c2 3 13 -3 24 -12 11 -9 23 -13 27 -10 5 4 2 -1 -6 -11 -12 -17 -12 -18 6
-15 10 1 22 7 25 12 4 4 10 3 13 -3 4 -6 2 -11 -4 -11 -7 0 -10 -7 -6 -17 5
-15 4 -15 -9 1 -10 13 -15 15 -15 6 0 -9 -8 -6 -24 9 -13 12 -27 21 -32 20
-22 -4 -26 2 -10 14 21 15 21 15 -49 18 -19 0 -35 4 -35 9 0 4 11 6 25 5 14
-2 28 2 31 7 5 7 12 4 21 -8 8 -10 16 -17 18 -14z m148 -81 c-8 -8 -13 -7 -18
2 -5 8 -4 10 3 5 7 -4 12 -2 12 5 0 7 3 9 7 6 4 -4 2 -12 -4 -18z"/>
<path d="M1440 136 c0 -2 8 -10 18 -17 15 -13 16 -12 3 4 -13 16 -21 21 -21
13z"/>
<path d="M257 657 c-3 -8 -2 -20 3 -26 5 -9 8 -4 8 13 0 29 -3 32 -11 13z"/>
<path d="M268 543 c7 -3 16 -2 19 1 4 3 -2 6 -13 5 -11 0 -14 -3 -6 -6z"/>
<path d="M286 503 c-4 -10 -4 -14 0 -10 4 4 16 -1 27 -10 20 -18 20 -18 2 10
-20 32 -21 32 -29 10z"/>
<path d="M317 453 c-11 -11 -8 -20 7 -20 8 0 12 6 9 14 -6 15 -7 15 -16 6z"/>
<path d="M353 433 c0 -12 5 -19 9 -17 13 8 9 -11 -4 -26 -11 -12 -10 -12 5 -1
14 11 17 11 17 1 0 -8 3 -11 6 -7 4 3 -3 21 -14 39 -18 27 -21 29 -19 11z"/>
<path d="M417 353 c-3 -5 6 -9 20 -10 19 -1 22 1 12 8 -17 11 -26 11 -32 2z"/>
<path d="M490 347 c0 -5 7 -15 15 -24 8 -8 13 -18 11 -22 -3 -4 11 -7 30 -8
19 0 34 3 34 8 0 4 -10 6 -22 4 -16 -3 -29 4 -45 23 -12 15 -22 23 -23 19z"/>
<path d="M590 278 c0 -4 7 -8 15 -8 8 0 15 4 15 8 0 5 -7 9 -15 9 -8 0 -15 -4
-15 -9z"/>
<path d="M670 259 c0 -5 5 -7 10 -4 6 3 10 8 10 11 0 2 -4 4 -10 4 -5 0 -10
-5 -10 -11z"/>
<path d="M830 224 c0 -16 20 -41 20 -26 0 14 31 12 43 -3 5 -6 7 -4 5 4 -2 8
-11 15 -19 17 -7 1 -22 5 -31 9 -10 4 -18 3 -18 -1z"/>
<path d="M710 199 c0 -5 5 -7 10 -4 6 3 10 8 10 11 0 2 -4 4 -10 4 -5 0 -10
-5 -10 -11z"/>
<path d="M932 186 c0 -12 2 -16 6 -11 8 13 22 13 42 0 12 -7 13 -6 3 7 -7 8
-11 17 -8 19 2 3 -6 5 -18 5 -16 0 -24 -6 -25 -20z"/>
<path d="M1123 172 c-3 -7 -3 -16 1 -19 3 -4 6 1 6 11 0 9 4 15 8 12 4 -2 14
-1 22 4 11 7 9 9 -9 7 -13 -1 -26 -7 -28 -15z"/>
<path d="M1185 179 c4 -5 11 -7 16 -4 5 4 9 -2 9 -12 0 -15 2 -16 10 -3 11 17
9 19 -19 25 -12 2 -19 0 -16 -6z"/>
<path d="M1050 161 c0 -6 4 -13 10 -16 6 -3 7 1 4 9 -7 18 -14 21 -14 7z"/>
<path d="M1155 161 c-3 -5 0 -13 6 -17 7 -4 9 -3 5 4 -3 5 0 13 6 15 9 4 10 6
1 6 -6 1 -14 -3 -18 -8z"/>
<path d="M2275 160 c3 -5 8 -10 11 -10 2 0 4 5 4 10 0 6 -5 10 -11 10 -5 0 -7
-4 -4 -10z"/>
<path d="M2242 137 c-8 -10 -5 -16 11 -27 20 -12 21 -12 9 3 -8 9 -11 21 -7
27 9 14 0 13 -13 -3z"/>
<path d="M1319 133 c0 -5 -2 -18 -3 -30 -1 -12 1 -20 4 -18 8 5 11 55 4 55 -2
0 -4 -3 -5 -7z"/>
<path d="M2120 111 c9 -6 10 -11 3 -11 -6 0 -10 -7 -9 -15 3 -19 13 -29 13
-13 0 7 2 19 4 27 2 7 -3 16 -11 18 -13 4 -13 3 0 -6z"/>
<path d="M1416 81 c-4 -5 3 -7 14 -4 23 6 26 13 6 13 -8 0 -17 -4 -20 -9z"/>
<path d="M2185 79 c-3 -4 2 -6 10 -5 21 3 28 13 10 13 -9 0 -18 -4 -20 -8z"/>
<path d="M1760 40 c-9 -6 -10 -10 -3 -10 6 0 15 5 18 10 8 12 4 12 -15 0z"/>
<path d="M1790 39 c0 -5 5 -7 10 -4 6 3 10 8 10 11 0 2 -4 4 -10 4 -5 0 -10
-5 -10 -11z"/>
</g>
</svg>
